REM DIRINDEX 1\2,1\3,1\4,1\5
REM DIRNAME folder01,folder02,folder03,folder04,folder05
TITLE ""
FILE "1800_147.mp3" MP3
  TRACK 01 AUDIO
    TITLE "2:cjc044_4521"
    INDEX 01 00:00:00
  TRACK 02 AUDIO
    TITLE "0:"
    INDEX 01 00:01:21
  TRACK 03 AUDIO
    TITLE "3:cjc044_4522"
    INDEX 01 00:02:00
  TRACK 04 AUDIO
    TITLE "0:"
    INDEX 01 00:03:14
  TRACK 05 AUDIO
    TITLE "4:cjc044_4523"
    INDEX 01 00:03:68
  TRACK 06 AUDIO
    TITLE "0:"
    INDEX 01 00:05:18
  TRACK 07 AUDIO
    TITLE "2:cjc044_4524"
    INDEX 01 00:06:69
  TRACK 08 AUDIO
    TITLE "0:"
    INDEX 01 00:08:32
  TRACK 09 AUDIO
    TITLE "3:cjc044_4525"
    INDEX 01 00:09:06
  TRACK 10 AUDIO
    TITLE "0:"
    INDEX 01 00:10:39
  TRACK 11 AUDIO
    TITLE "4:cjc044_4526"
    INDEX 01 00:11:15
  TRACK 12 AUDIO
    TITLE "0:"
    INDEX 01 00:12:54
  TRACK 13 AUDIO
    TITLE "2:cjc044_4527"
    INDEX 01 00:14:27
  TRACK 14 AUDIO
    TITLE "0:"
    INDEX 01 00:15:56
  TRACK 15 AUDIO
    TITLE "3:cjc044_4528"
    INDEX 01 00:16:36
  TRACK 16 AUDIO
    TITLE "0:"
    INDEX 01 00:17:27
  TRACK 17 AUDIO
    TITLE "4:cjc044_4529"
    INDEX 01 00:18:07
  TRACK 18 AUDIO
    TITLE "0:"
    INDEX 01 00:19:36
  TRACK 19 AUDIO
    TITLE "2:cjc044_4530"
    INDEX 01 00:21:15
  TRACK 20 AUDIO
    TITLE "0:"
    INDEX 01 00:22:32
  TRACK 21 AUDIO
    TITLE "3:cjc044_4531"
    INDEX 01 00:23:10
  TRACK 22 AUDIO
    TITLE "0:"
    INDEX 01 00:24:12
  TRACK 23 AUDIO
    TITLE "4:cjc044_4532"
    INDEX 01 00:24:67
  TRACK 24 AUDIO
    TITLE "0:"
    INDEX 01 00:26:09
  TRACK 25 AUDIO
    TITLE "2:cjc044_4533"
    INDEX 01 00:27:63
  TRACK 26 AUDIO
    TITLE "0:"
    INDEX 01 00:28:74
  TRACK 27 AUDIO
    TITLE "3:cjc044_4534"
    INDEX 01 00:29:54
  TRACK 28 AUDIO
    TITLE "0:"
    INDEX 01 00:30:57
  TRACK 29 AUDIO
    TITLE "4:cjc044_4535"
    INDEX 01 00:31:37
  TRACK 30 AUDIO
    TITLE "0:"
    INDEX 01 00:32:50
  TRACK 31 AUDIO
    TITLE "2:cjc044_4536"
    INDEX 01 00:34:32
  TRACK 32 AUDIO
    TITLE "0:"
    INDEX 01 00:35:64
  TRACK 33 AUDIO
    TITLE "3:cjc044_4537"
    INDEX 01 00:36:42
  TRACK 34 AUDIO
    TITLE "0:"
    INDEX 01 00:37:65
  TRACK 35 AUDIO
    TITLE "4:cjc044_4538"
    INDEX 01 00:38:47
  TRACK 36 AUDIO
    TITLE "0:"
    INDEX 01 00:40:05
  TRACK 37 AUDIO
    TITLE "2:cjc044_4539"
    INDEX 01 00:41:55
  TRACK 38 AUDIO
    TITLE "0:"
    INDEX 01 00:42:65
  TRACK 39 AUDIO
    TITLE "3:cjc044_4540"
    INDEX 01 00:43:46
  TRACK 40 AUDIO
    TITLE "0:"
    INDEX 01 00:44:56
  TRACK 41 AUDIO
    TITLE "4:cjc044_4541"
    INDEX 01 00:45:43
  TRACK 42 AUDIO
    TITLE "0:"
    INDEX 01 00:46:51
  TRACK 43 AUDIO
    TITLE "2:cjc044_4542"
    INDEX 01 00:48:32
  TRACK 44 AUDIO
    TITLE "0:"
    INDEX 01 00:49:53
  TRACK 45 AUDIO
    TITLE "3:cjc044_4543"
    INDEX 01 00:50:33
  TRACK 46 AUDIO
    TITLE "0:"
    INDEX 01 00:51:54
  TRACK 47 AUDIO
    TITLE "4:cjc044_4544"
    INDEX 01 00:52:34
  TRACK 48 AUDIO
    TITLE "0:"
    INDEX 01 00:53:53
  TRACK 49 AUDIO
    TITLE "2:cjc044_4545"
    INDEX 01 00:55:40
  TRACK 50 AUDIO
    TITLE "0:"
    INDEX 01 00:56:47
  TRACK 51 AUDIO
    TITLE "3:cjc044_4546"
    INDEX 01 00:57:33
  TRACK 52 AUDIO
    TITLE "0:"
    INDEX 01 00:58:38
  TRACK 53 AUDIO
    TITLE "4:cjc044_4547"
    INDEX 01 00:59:18
  TRACK 54 AUDIO
    TITLE "0:"
    INDEX 01 01:00:29
  TRACK 55 AUDIO
    TITLE "2:cjc044_4548"
    INDEX 01 01:02:20
  TRACK 56 AUDIO
    TITLE "0:"
    INDEX 01 01:03:41
  TRACK 57 AUDIO
    TITLE "3:cjc044_4549"
    INDEX 01 01:04:17
  TRACK 58 AUDIO
    TITLE "0:"
    INDEX 01 01:05:24
  TRACK 59 AUDIO
    TITLE "4:cjc044_4550"
    INDEX 01 01:06:08
  TRACK 60 AUDIO
    TITLE "0:"
    INDEX 01 01:07:29
  TRACK 61 AUDIO
    TITLE "2:cjc044_4551"
    INDEX 01 01:09:07
  TRACK 62 AUDIO
    TITLE "0:"
    INDEX 01 01:10:30
  TRACK 63 AUDIO
    TITLE "3:cjc044_4552"
    INDEX 01 01:11:11
  TRACK 64 AUDIO
    TITLE "0:"
    INDEX 01 01:12:24
  TRACK 65 AUDIO
    TITLE "4:cjc044_4553"
    INDEX 01 01:13:08
  TRACK 66 AUDIO
    TITLE "0:"
    INDEX 01 01:14:29
  TRACK 67 AUDIO
    TITLE "2:cjc044_4554"
    INDEX 01 01:16:12
  TRACK 68 AUDIO
    TITLE "0:"
    INDEX 01 01:17:35
  TRACK 69 AUDIO
    TITLE "3:cjc044_4555"
    INDEX 01 01:18:15
  TRACK 70 AUDIO
    TITLE "0:"
    INDEX 01 01:19:17
  TRACK 71 AUDIO
    TITLE "4:cjc044_4556"
    INDEX 01 01:19:74
  TRACK 72 AUDIO
    TITLE "0:"
    INDEX 01 01:21:20
  TRACK 73 AUDIO
    TITLE "2:cjc044_4557"
    INDEX 01 01:23:07
  TRACK 74 AUDIO
    TITLE "0:"
    INDEX 01 01:24:20
  TRACK 75 AUDIO
    TITLE "3:cjc044_4558"
    INDEX 01 01:25:00
  TRACK 76 AUDIO
    TITLE "0:"
    INDEX 01 01:26:23
  TRACK 77 AUDIO
    TITLE "4:cjc044_4559"
    INDEX 01 01:27:08
  TRACK 78 AUDIO
    TITLE "0:"
    INDEX 01 01:28:24
  TRACK 79 AUDIO
    TITLE "2:cjc044_4560"
    INDEX 01 01:29:72
  TRACK 80 AUDIO
    TITLE "0:"
    INDEX 01 01:31:30
  TRACK 81 AUDIO
    TITLE "3:cjc044_4561"
    INDEX 01 01:32:13
  TRACK 82 AUDIO
    TITLE "0:"
    INDEX 01 01:33:23
  TRACK 83 AUDIO
    TITLE "4:cjc044_4562"
    INDEX 01 01:33:74
  TRACK 84 AUDIO
    TITLE "0:"
    INDEX 01 01:35:29
  TRACK 85 AUDIO
    TITLE "2:cjc044_4563"
    INDEX 01 01:37:15
  TRACK 86 AUDIO
    TITLE "0:"
    INDEX 01 01:38:43
  TRACK 87 AUDIO
    TITLE "3:cjc044_4564"
    INDEX 01 01:39:27
  TRACK 88 AUDIO
    TITLE "0:"
    INDEX 01 01:40:44
  TRACK 89 AUDIO
    TITLE "4:cjc044_4565"
    INDEX 01 01:41:32
  TRACK 90 AUDIO
    TITLE "0:"
    INDEX 01 01:42:59
  TRACK 91 AUDIO
    TITLE "2:cjc044_4566"
    INDEX 01 01:44:40
  TRACK 92 AUDIO
    TITLE "0:"
    INDEX 01 01:45:53
  TRACK 93 AUDIO
    TITLE "3:cjc044_4567"
    INDEX 01 01:46:41
  TRACK 94 AUDIO
    TITLE "0:"
    INDEX 01 01:48:05
  TRACK 95 AUDIO
    TITLE "4:cjc044_4568"
    INDEX 01 01:48:65
  TRACK 96 AUDIO
    TITLE "0:"
    INDEX 01 01:50:06
